<?xml version="1.0" standalone="no"?>
<!DOCTYPE svg PUBLIC "-//W3C//DTD SVG 20010904//EN"
 "http://www.w3.org/TR/2001/REC-SVG-20010904/DTD/svg10.dtd">
<svg version="1.0" xmlns="http://www.w3.org/2000/svg"
 width="420.000000pt" height="420.000000pt" viewBox="0 0 420.000000 420.000000"
 preserveAspectRatio="xMidYMid meet">

<g transform="translate(0.000000,420.000000) scale(0.100000,-0.100000)"
fill="#000000" stroke="none">
<path d="M1795 4086 c-187 -30 -247 -45 -410 -108 -270 -103 -472 -235 -686
-448 -222 -221 -379 -467 -484 -756 -47 -129 -97 -381 -110 -556 -15 -190 45
-632 104 -773 5 -11 21 -49 36 -85 14 -36 33 -78 40 -95 7 -16 26 -57 40 -90
15 -33 37 -73 48 -90 12 -16 27 -40 33 -51 47 -89 259 -338 370 -436 70 -61
199 -161 217 -168 7 -3 29 -17 48 -33 20 -15 40 -27 45 -27 5 0 36 -18 69 -40
33 -22 63 -40 67 -40 4 0 51 -21 105 -46 96 -45 185 -72 398 -122 102 -24 127
-26 360 -26 206 -1 267 2 345 18 238 47 524 151 663 240 141 92 190 126 272
192 185 147 392 403 497 615 99 201 112 234 177 469 56 203 75 488 47 708 -22
169 -87 417 -143 542 -88 199 -163 325 -279 470 -125 157 -250 275 -424 401
-91 66 -278 171 -334 188 -17 5 -73 28 -124 50 -51 23 -101 41 -111 41 -10 0
-38 7 -61 15 -85 30 -300 57 -485 61 -153 3 -203 0 -330 -20z m545 -301 c214
-37 337 -77 515 -166 137 -69 154 -81 360 -248 77 -62 241 -248 281 -318 16
-27 38 -61 50 -78 99 -138 197 -401 233 -630 26 -166 19 -374 -20 -570 -24
-122 -101 -355 -134 -410 -13 -22 -38 -67 -56 -100 -80 -152 -228 -350 -247
-330 -5 6 -26 62 -47 125 -21 63 -58 158 -83 210 -24 52 -45 100 -45 106 0 6
19 46 44 90 84 151 127 284 154 477 34 236 4 530 -71 694 -31 68 -108 176
-174 243 -70 71 -177 131 -295 167 -75 22 -313 25 -390 5 -110 -30 -199 -69
-266 -117 -42 -30 -49 -32 -67 -20 -45 32 -163 89 -242 116 -64 22 -111 31
-190 36 -352 20 -622 -157 -736 -484 -58 -167 -68 -229 -68 -423 -1 -282 43
-463 169 -696 25 -46 45 -90 45 -98 0 -7 -9 -25 -21 -39 -11 -15 -27 -48 -35
-74 -9 -27 -20 -57 -25 -68 -26 -57 -58 -156 -64 -198 -12 -82 -32 -74 -123
45 -67 87 -172 245 -172 257 0 4 -20 47 -45 94 -25 48 -45 92 -45 98 0 6 -6
25 -14 42 -77 169 -117 471 -97 720 19 228 61 386 155 575 137 278 259 430
495 621 157 126 207 155 431 249 125 52 187 70 350 98 156 27 328 27 490 -1z
m454 -1036 c126 -63 205 -157 251 -302 34 -106 44 -210 34 -344 -14 -191 -67
-410 -108 -447 -17 -15 -22 -12 -79 48 -62 66 -211 174 -286 206 -70 31 -217
71 -316 85 -211 31 -445 8 -622 -61 -113 -44 -264 -143 -350 -228 -71 -71 -72
-71 -101 -6 -67 153 -82 242 -81 485 1 218 8 259 70 369 78 139 239 236 393
236 111 0 192 -30 376 -136 128 -74 149 -71 319 36 43 27 104 59 135 71 119
44 260 40 365 -12z m-469 -1043 c201 -52 348 -149 472 -314 l22 -29 -43 -54
c-75 -96 -163 -167 -271 -219 -153 -74 -234 -93 -395 -94 -189 -1 -295 28
-489 135 -52 28 -231 195 -231 215 0 17 76 117 123 163 114 108 277 188 432
211 27 4 104 8 170 9 96 0 138 -4 210 -23z m-951 -758 c76 -56 287 -168 317
-168 8 0 43 -9 79 -20 98 -30 307 -53 420 -45 110 8 289 51 395 96 95 39 191
97 290 176 78 61 80 63 96 43 9 -10 38 -84 64 -164 40 -121 46 -148 35 -161
-18 -22 -220 -141 -299 -177 -135 -61 -203 -82 -366 -115 -163 -32 -405 -37
-550 -10 -159 30 -189 37 -225 51 -19 7 -53 19 -75 26 -45 14 -100 36 -130 53
-11 6 -45 24 -75 40 -30 15 -62 34 -70 41 -8 6 -32 21 -53 31 -21 11 -53 34
-72 50 l-33 31 15 59 c8 33 18 65 22 70 4 6 16 37 26 70 10 33 29 78 43 99
l25 40 20 -28 c11 -15 56 -55 101 -88z"/>
</g>
</svg>
